General

Complete name                    : Scooby Doo Abracadabra Doo 2010{PSP.IPOD.ZUNE} DVDRIP.aaaevilacharya.m4v
Format                           : MPEG-4
Format profile                   : Base Media / Version 2
Codec ID                         : mp42
File size                        : 248 MiB
Duration                         : 1h 12mn
Overall bit rate                 : 479 Kbps
Encoded date                     : UTC 2010-12-05 18:12:31
Tagged date                      : UTC 2010-12-05 18:53:29


Video
ID                               : 1
Format                           : AVC
Format/Info                      : Advanced Video Codec
Format profile                   : Baseline@L3.0
Format settings, CABAC           : No
Format settings, ReFrames        : 1 frame
Codec ID                         : avc1
Codec ID/Info                    : Advanced Video Coding
Duration                         : 1h 12mn
Bit rate mode                    : Variable
Bit rate                         : 367 Kbps
Width                            : 480 pixels
Height                           : 208 pixels
Display aspect ratio             : 2.35:1
Frame rate mode                  : Variable
Frame rate                       : 23.976 fps
Minimum frame rate               : 5.994 fps
Maximum frame rate               : 23.981 fps
Color space                      : YUV
Chroma subsampling               : 4:2:0
Bit depth                        : 8 bits
Scan type                        : Progressive
Bits/(Pixel*Frame)               : 0.153
Stream size                      : 189 MiB (76%)
Writing library                  : x264 core 79


Audio
ID                               : 2
Format                           : AAC
Format/Info                      : Advanced Audio Codec
Format version                   : Version 4
Format profile                   : LC
Format settings, SBR             : No
Codec ID                         : 40
Duration                         : 1h 12mn
Bit rate mode                    : Variable
Bit rate                         : 110 Kbps
Maximum bit rate                 : 188 Kbps
Channel(s)                       : 2 channels
Channel positions                : Front: L R
Sampling rate                    : 32.0 KHz
Stream size                      : 57.1 MiB (23%)
Encoded date                     : UTC 2010-12-05 18:12:31
Tagged date                      : UTC 2010-12-05 18:53:29

Text
ID                               : 3
Format                           : Apple text
Codec ID                         : text
Duration                         : 1h 12mn
Bit rate                         : 0
Stream size                      : 14.0 Bytes (0%)
Encoded date                     : UTC 2010-12-05 18:12:31
Tagged date                      : UTC 2010-12-05 18:53:29

SCREENSHOTS 
http://img819.imageshack.us/img819/6868/scoobydooabracadabradoo.jpg
http://img38.imageshack.us/img38/7816/scoobydooabracadabradoo0.jpg
http://img80.imageshack.us/img80/6868/scoobydooabracadabradoo.jpg
http://img688.imageshack.us/img688/6868/scoobydooabracadabradoo.jpg
http://img101.imageshack.us/img101/7816/scoobydooabracadabradoo0.jpg
http://img194.imageshack.us/img194/7816/scoobydooabracadabradoo0.jpg
http://img27.imageshack.us/img27/6868/scoobydooabracadabradoo.jpg
http://img262.imageshack.us/img262/6868/scoobydooabracadabradoo.jpg
